PathFileType	4	(X/Y/Z)	RBDS012static.trc
DataRate	CameraRate	NumFrames	NumMarkers	Units	OrigDataRate	OrigDataStartFrame	OrigNumFrames
150.000000	150.000000	4	48	mm	150.000000	131	150
Frame#	Time	L.Ankle			L.Ankle.Medial			L.ASIS			L.GTR			L.Heel.Bottom			L.Heel.Lateral			L.Heel.Top			L.HF			L.Iliac.Crest			L.Knee			L.Knee.Medial			L.MT1			L.MT2			L.MT5			L.PSIS			L.Shank.Bottom.Lateral			L.Shank.Bottom.Medial			L.Shank.Top.Lateral			L.Shank.Top.Medial			L.Thigh.Bottom.Lateral			L.Thigh.Bottom.Medial			L.Thigh.Top.Lateral			L.Thigh.Top.Medial			L.TT			R.Ankle			R.Ankle.Medial			R.ASIS			R.GTR			R.Heel.Bottom			R.Heel.Lateral			R.Heel.Top			R.HF			R.Iliac.Crest			R.Knee			R.Knee.Medial			R.MT1			R.MT2			R.MT5			R.PSIS			R.Shank.Bottom.Lateral			R.Shank.Bottom.Medial			R.Shank.Top.Lateral			R.Shank.Top.Medial			R.Thigh.Bottom.Lateral			R.Thigh.Bottom.Medial			R.Thigh.Top.Lateral			R.Thigh.Top.Medial			R.TT			
		X1	Y1	Z1	X2	Y2	Z2	X3	Y3	Z3	X4	Y4	Z4	X5	Y5	Z5	X6	Y6	Z6	X7	Y7	Z7	X8	Y8	Z8	X9	Y9	Z9	X10	Y10	Z10	X11	Y11	Z11	X12	Y12	Z12	X13	Y13	Z13	X14	Y14	Z14	X15	Y15	Z15	X16	Y16	Z16	X17	Y17	Z17	X18	Y18	Z18	X19	Y19	Z19	X20	Y20	Z20	X21	Y21	Z21	X22	Y22	Z22	X23	Y23	Z23	X24	Y24	Z24	X25	Y25	Z25	X26	Y26	Z26	X27	Y27	Z27	X28	Y28	Z28	X29	Y29	Z29	X30	Y30	Z30	X31	Y31	Z31	X32	Y32	Z32	X33	Y33	Z33	X34	Y34	Z34	X35	Y35	Z35	X36	Y36	Z36	X37	Y37	Z37	X38	Y38	Z38	X39	Y39	Z39	X40	Y40	Z40	X41	Y41	Z41	X42	Y42	Z42	X43	Y43	Z43	X44	Y44	Z44	X45	Y45	Z45	X46	Y46	Z46	X47	Y47	Z47	X48	Y48	Z48	

132	0.8733333333333334	715.4189453125	107.1983642578125	1041.953491210938	743.0651245117188	120.1031036376953	1126.0078125	863.4624633789063	1038.978759765625	1083.56298828125	780.737060546875	965.2219848632813	1043.318115234375	642.4887084960938	43.15028762817383	1086.022216796875	673.7711791992188	55.57828140258789	1040.09716796875	653.0244140625	92.94279479980469	1084.99951171875	755.4673461914063	482.7073974609375	1046.35302734375	805.6026611328125	1105.503173828125	1051.463989257813	756.4342651367188	556.8936767578125	1048.017333984375	765.53857421875	531.8257446289063	1178.070190429688	865.34228515625	56.72367858886719	1128.9228515625	878.6350708007813	66.45661163330078	1081.92919921875	841.7987670898438	51.38247680664063	1009.92529296875	691.9932250976563	1079.9765625	1175.01025390625	724.711181640625	187.2261352539063	1037.42919921875	680.8155517578125	187.967041015625	1071.026000976563	717.905517578125	267.2146911621094	1028.515869140625	676.887451171875	268.6386413574219	1063.324096679688	789.2390747070313	656.20947265625	1030.349975585938	722.9850463867188	654.9869384765625	1060.286499023438	779.1604614257813	766.1109619140625	1022.690979003906	720.1793212890625	765.5288696289063	1057.549438476563	810.6239013671875	464.5706176757813	1092.04541015625	722.1365966796875	110.1604156494141	1406.086181640625	749.7208251953125	123.5664596557617	1324.554443359375	863.9923706054688	1051.051635742188	1365.656860351563	792.5289916992188	961.7295532226563	1408.4892578125	642.6605834960938	44.92390823364258	1373.130615234375	665.1452026367188	62.58053970336914	1408.757934570313	655.1746826171875	94.61656188964844	1370.594360351563	775.3622436523438	480.4695434570313	1400.274536132813	808.6614379882813	1108.921264648438	1391.507568359375	773.5473022460938	556.2677612304688	1398.105224609375	783.5011596679688	537.9032592773438	1268.575805664063	864.8984985351563	58.59689712524414	1323.044921875	879.7927856445313	67.07752227783203	1373.524536132813	841.2587280273438	52.90582656860352	1441.99755859375	693.3663330078125	1078.843139648438	1278.90673828125	723.6486206054688	193.199462890625	1409.158325195313	684.4353637695313	200.94921875	1377.342895507813	729.148193359375	277.1922302246094	1420.40380859375	687.0057983398438	281.1854248046875	1388.072631835938	774.3446044921875	645.1680908203125	1411.598999023438	716.5562133789063	644.776611328125	1365.328735351563	765.7770385742188	754.646240234375	1416.048583984375	713.142822265625	755.1443481445313	1370.882446289063	828.6557006835938	466.1191711425781	1354.1279296875	
133	0.88	715.419921875	107.1971740722656	1041.957275390625	743.0712280273438	120.1218338012695	1126.001586914063	863.4874267578125	1038.97998046875	1083.568969726563	780.7508544921875	965.2214965820313	1043.317016601563	642.4908447265625	43.14988708496094	1086.029296875	673.7725219726563	55.58333969116211	1040.094116210938	653.027099609375	92.94598388671875	1085.00390625	755.4755249023438	482.716796875	1046.367797851563	805.6339721679688	1105.511474609375	1051.46875	756.4559936523438	556.9052124023438	1048.014038085938	765.5597534179688	531.8486328125	1178.099365234375	865.354248046875	56.73476409912109	1128.905883789063	878.6408081054688	66.45468902587891	1081.931396484375	841.80859375	51.38116836547852	1009.93115234375	692.020263671875	1079.977905273438	1175.01318359375	724.7119750976563	187.2265014648438	1037.433227539063	680.8154296875	187.9764556884766	1071.038696289063	717.9038696289063	267.2211303710938	1028.520629882813	676.8973388671875	268.6411437988281	1063.344360351563	789.245361328125	656.21142578125	1030.3525390625	723.0047607421875	654.9806518554688	1060.303344726563	779.17236328125	766.1168823242188	1022.701477050781	720.1931762695313	765.5338745117188	1057.565185546875	810.615478515625	464.5788269042969	1092.052734375	722.1347045898438	110.1539077758789	1406.074951171875	749.7345581054688	123.5676651000977	1324.562133789063	864.0357666015625	1051.050903320313	1365.65234375	792.576416015625	961.732666015625	1408.494384765625	642.65966796875	44.92557907104492	1373.134887695313	665.152587890625	62.57867431640625	1408.752563476563	655.177978515625	94.61811065673828	1370.591430664063	775.3875122070313	480.46240234375	1400.269775390625	808.7172241210938	1108.93115234375	1391.50146484375	773.5823974609375	556.2652587890625	1398.093505859375	783.5235595703125	537.89794921875	1268.57861328125	864.908447265625	58.60678863525391	1323.049560546875	879.7921142578125	67.07180023193359	1373.52294921875	841.2683715820313	52.91537475585938	1441.999633789063	693.4069213867188	1078.847778320313	1278.906860351563	723.6577758789063	193.19189453125	1409.146484375	684.4437866210938	200.9540557861328	1377.341918945313	729.1615600585938	277.1969299316406	1420.410522460938	687.0180053710938	281.19384765625	1388.08251953125	774.3814086914063	645.1722412109375	1411.595703125	716.5825805664063	644.7734985351563	1365.322875976563	765.8217163085938	754.6513671875	1416.053955078125	713.1846923828125	755.1448364257813	1370.88916015625	828.683837890625	466.1209106445313	1354.118774414063	
134	0.8866666666666667	715.426513671875	107.2030334472656	1041.955200195313	743.0812377929688	120.1106338500977	1126.003540039063	863.5115966796875	1038.982055664063	1083.558715820313	780.7640991210938	965.2134399414063	1043.32861328125	642.488037109375	43.14962768554688	1086.027465820313	673.7748413085938	55.58948135375977	1040.095703125	653.0377807617188	92.95075988769531	1085.006469726563	755.4920043945313	482.718994140625	1046.370971679688	805.6567993164063	1105.516967773438	1051.466674804688	756.4571533203125	556.905029296875	1048.002197265625	765.5809936523438	531.8422241210938	1178.08642578125	865.3603515625	56.73187637329102	1128.912841796875	878.6441650390625	66.46567535400391	1081.919067382813	841.8015747070313	51.38611221313477	1009.931640625	692.0516357421875	1079.986206054688	1175.03759765625	724.71337890625	187.2306213378906	1037.433959960938	680.8182983398438	187.9852600097656	1071.032104492188	717.91650390625	267.2282409667969	1028.522705078125	676.8968505859375	268.6583557128906	1063.33837890625	789.2388305664063	656.2102661132813	1030.354736328125	723.0008544921875	654.98583984375	1060.334716796875	779.1832275390625	766.11669921875	1022.705749511719	720.2146606445313	765.5360717773438	1057.577880859375	810.6376342773438	464.5712585449219	1092.050537109375	722.1389770507813	110.1607666015625	1406.091064453125	749.7216186523438	123.5722122192383	1324.55712890625	864.0845336914063	1051.047973632813	1365.644653320313	792.6305541992188	961.7269287109375	1408.500732421875	642.66015625	44.92206954956055	1373.126098632813	665.1585693359375	62.58675003051758	1408.766967773438	655.1842041015625	94.61428070068359	1370.591918945313	775.4283447265625	480.4543151855469	1400.27099609375	808.7699584960938	1108.934692382813	1391.510986328125	773.614013671875	556.2649536132813	1398.095947265625	783.5596923828125	537.8975830078125	1268.583862304688	864.9161376953125	58.60913467407227	1323.042602539063	879.7944946289063	67.07485961914063	1373.521118164063	841.2633666992188	52.91260528564453	1441.988403320313	693.4481201171875	1078.843017578125	1278.919799804688	723.666015625	193.1943359375	1409.147216796875	684.45458984375	200.9507446289063	1377.345336914063	729.1773071289063	277.1942443847656	1420.406616210938	687.0401000976563	281.1898498535156	1388.081298828125	774.4244995117188	645.168701171875	1411.593994140625	716.6307983398438	644.76904296875	1365.337890625	765.8598022460938	754.6477661132813	1416.051147460938	713.218994140625	755.1451416015625	1370.9130859375	828.6975708007813	466.1111755371094	1354.124633789063	
135	0.8933333333333334	715.432373046875	107.1993255615234	1041.959716796875	743.076416015625	120.0923690795898	1126.012451171875	863.5286254882813	1038.982299804688	1083.559326171875	780.7907104492188	965.2149047851563	1043.332397460938	642.4915161132813	43.15666961669922	1086.029052734375	673.7763671875	55.59383010864258	1040.10107421875	653.0404052734375	92.95271301269531	1085.007568359375	755.4837036132813	482.7221069335938	1046.370361328125	805.7391967773438	1105.552978515625	1051.599243164063	756.4750366210938	556.9133911132813	1048.031127929688	765.5849609375	531.8455810546875	1178.100341796875	865.349853515625	56.73191452026367	1128.91357421875	878.6464233398438	66.45944213867188	1081.924560546875	841.8093872070313	51.38091659545898	1009.940002441406	692.08740234375	1079.977783203125	1175.032836914063	724.7118530273438	187.2363128662109	1037.443359375	680.8239135742188	187.9855499267578	1071.040405273438	717.922119140625	267.22998046875	1028.524658203125	676.8990478515625	268.658203125	1063.3505859375	789.2395629882813	656.2077026367188	1030.347778320313	723.01416015625	654.98974609375	1060.345825195313	779.194091796875	766.1156005859375	1022.713256835938	720.2257690429688	765.5397338867188	1057.586547851563	810.6483154296875	464.583984375	1092.046264648438	722.136962890625	110.1653060913086	1406.095336914063	749.7257690429688	123.5698165893555	1324.56494140625	864.1348266601563	1051.0439453125	1365.638305664063	792.6792602539063	961.7236328125	1408.503295898438	642.65966796875	44.92619323730469	1373.12841796875	665.15771484375	62.5880241394043	1408.765014648438	655.1796264648438	94.62711334228516	1370.598876953125	775.4474487304688	480.4668273925781	1400.2763671875	808.8233032226563	1108.934814453125	1391.50244140625	773.6380615234375	556.2586669921875	1398.10400390625	783.56201171875	537.897705078125	1268.572875976563	864.9065551757813	58.59785079956055	1323.047119140625	879.79345703125	67.07575988769531	1373.531005859375	841.2759399414063	52.90737152099609	1441.98974609375	693.4838256835938	1078.841064453125	1278.920654296875	723.6820068359375	193.1963806152344	1409.15283203125	684.4622192382813	200.9563293457031	1377.351440429688	729.1946411132813	277.1954956054688	1420.417846679688	687.0548095703125	281.1948547363281	1388.078491210938	774.4603881835938	645.1647338867188	1411.601928710938	716.6600952148438	644.7760009765625	1365.33740234375	765.9003295898438	754.646240234375	1416.049682617188	713.2474365234375	755.1588745117188	1370.914184570313	828.724365234375	466.1047973632813	1354.115478515625	
